<?xml version="1.0" encoding="UTF-8"?>
<svg viewBox="0 0 32 30" version="1.1" xmlns="http://www.w3.org/2000/svg" xmlns:xlink="http://www.w3.org/1999/xlink">
    <!-- Generator: sketchtool 55.2 (78181) - https://sketchapp.com -->
    <title>7FFE0355-979D-4B07-A773-8275918036C5</title>
    <desc>Created with sketchtool.</desc>
    <defs>
        <path d="M14.9999642,0 C17.734333,0 20.2440924,0.546873398 22.5292432,1.64062109 C24.814394,2.73436878 26.6307959,4.20897404 27.9784489,6.06443867 C29.326102,7.91990329 29.9999285,9.96091375 29.9999285,12.1874709 C29.9999285,14.4140281 29.326102,16.4550386 27.9784489,18.3105032 C26.6307959,20.1659678 24.814394,21.6405731 22.5292432,22.7343208 C20.2440924,23.8280685 17.734333,24.3749419 14.9999642,24.3749419 C13.1640314,24.3749419 11.3476295,24.1015047 9.55075848,23.5546313 C7.01170233,25.3515024 4.29686446,26.2499374 1.40624665,26.2499374 C1.1328095,26.2499374 0.878904155,26.1718129 0.644529713,26.015563 C0.410155272,25.859313 0.234374441,25.6542354 0.117187221,25.4003301 C0,25.1464247 -0.0292968052,24.8827535 0.0292968052,24.6093163 C0.0878904155,24.3358792 0.205077636,24.1112706 0.380858467,23.9354898 C0.556639298,23.759709 0.89843506,23.3202569 1.40624665,22.6171336 C2.18749449,21.5624486 2.75389968,20.5468263 3.10546135,19.5702658 C1.03515408,17.3827714 0,14.9218397 0,12.1874709 C0,9.96091375 0.673826518,7.91990329 2.02147956,6.06443867 C3.36913259,4.20897404 5.18553451,2.73436878 7.47068531,1.64062109 C9.75583612,0.546873398 12.2655955,0 14.9999642,0 Z" id="path-1"></path>
        <filter x="-8.3%" y="-5.7%" width="116.7%" height="122.9%" filterUnits="objectBoundingBox" id="filter-2">
            <feOffset dx="0" dy="2" in="SourceAlpha" result="shadowOffsetOuter1"></feOffset>
            <feGaussianBlur stdDeviation="0.5" in="shadowOffsetOuter1" result="shadowBlurOuter1"></feGaussianBlur>
            <feColorMatrix values="0 0 0 0 0   0 0 0 0 0   0 0 0 0 0  0 0 0 0.3 0" type="matrix" in="shadowBlurOuter1"></feColorMatrix>
        </filter>
    </defs>
    <g id="Page-1" stroke="none" stroke-width="1" fill="none" fill-rule="evenodd">
        <g id="Chat-bubble/Default" transform="translate(-1605.000000, -941.000000)" fill-rule="nonzero">
            <g id="Chat-Bubble" transform="translate(1590.000000, 925.000000)">
                <g id="Group-3">
                    <g id="Group">
                        <g id="Chatbot-icon" transform="translate(16.000000, 16.625058)">
                            <g id="">
                                <use fill="black" fill-opacity="1" filter="url(#filter-2)" xlink:href="#path-1"></use>
                                <use fill="#FFFFFF" xlink:href="#path-1"></use>
                            </g>
                            <path d="M21.5624486,7.968731 C21.8358857,7.968731 22.0604943,8.05662142 22.2362751,8.23240225 C22.4120559,8.40818308 22.4999464,8.63279162 22.4999464,8.90622877 L22.4999464,9.84372653 C22.4999464,10.1171637 22.4120559,10.3417722 22.2362751,10.517553 C22.0604943,10.6933339 21.8358857,10.7812243 21.5624486,10.7812243 L8.43747988,10.7812243 C8.16404274,10.7812243 7.9394342,10.6933339 7.76365336,10.517553 C7.58787253,10.3417722 7.49998212,10.1171637 7.49998212,9.84372653 L7.49998212,8.90622877 C7.49998212,8.63279162 7.58787253,8.40818308 7.76365336,8.23240225 C7.9394342,8.05662142 8.16404274,7.968731 8.43747988,7.968731 L21.5624486,7.968731 Z" id="Path" fill="#E5E5E5"></path>
                            <path d="M15.937462,13.5937176 C16.2108991,13.5937176 16.4355077,13.681608 16.6112885,13.8573888 C16.7870694,14.0331697 16.8749598,14.2577782 16.8749598,14.5312154 L16.8749598,15.4687131 C16.8749598,15.7421503 16.7870694,15.9667588 16.6112885,16.1425396 C16.4355077,16.3183205 16.2108991,16.4062109 15.937462,16.4062109 L8.43747988,16.4062109 C8.16404274,16.4062109 7.9394342,16.3183205 7.76365336,16.1425396 C7.58787253,15.9667588 7.49998212,15.7421503 7.49998212,15.4687131 L7.49998212,14.5312154 C7.49998212,14.2577782 7.58787253,14.0331697 7.76365336,13.8573888 C7.9394342,13.681608 8.16404274,13.5937176 8.43747988,13.5937176 L15.937462,13.5937176 Z" id="Path" fill="#E5E5E5"></path>
                        </g>
                    </g>
                </g>
            </g>
        </g>
    </g>
</svg>
